<?xml version="1.0" encoding="UTF-8" standalone="no"?> <!-- Created with Vectornator for iOS (http://vectornator.io/) --><!DOCTYPE svg PUBLIC "-//W3C//DTD SVG 1.1//EN" "http://www.w3.org/Graphics/SVG/1.1/DTD/svg11.dtd">
<svg style="fill-rule:evenodd;clip-rule:evenodd;stroke-linecap:round;stroke-linejoin:round;" xmlns:vectornator="http://vectornator.io" xmlns:xlink="http://www.w3.org/1999/xlink" xmlns="http://www.w3.org/2000/svg" xml:space="preserve" version="1.1" viewBox="0 0 500 200">
<metadata>
<vectornator:setting key="DimensionsVisible" value="1"/>
<vectornator:setting key="SnapToGrid" value="0"/>
<vectornator:setting key="SnapToPoints" value="0"/>
<vectornator:setting key="GuidesVisible" value="1"/>
<vectornator:setting key="RulersVisible" value="1"/>
<vectornator:setting key="SnapToEdges" value="0"/>
<vectornator:setting key="DisplayWhiteBackground" value="0"/>
<vectornator:setting key="SnapToGuides" value="1"/>
<vectornator:setting key="GridSpacing" value="28.35000038146973"/>
<vectornator:setting key="Units" value="Pixels"/>
<vectornator:setting key="DynamicGuides" value="1"/>
<vectornator:setting key="New" value="1"/>
</metadata>
<defs>
<linearGradient y1="44.0144" id="LinearGradient" x1="482.724" y2="44.0144" x2="517.539" gradientUnits="userSpaceOnUse" gradientTransform="matrix(2.62376 0 0 2.62376 -892.999 10.4897)">
<stop stop-color="#fd8334" offset="0"/>
<stop stop-color="#e03b42" offset="0.56"/>
<stop stop-color="#d51f48" offset="1"/>
</linearGradient>
<linearGradient y1="33.5862" id="LinearGradient_2" x1="474.536" y2="33.5862" x2="513.453" gradientUnits="userSpaceOnUse" gradientTransform="matrix(2.62376 0 0 2.62376 -892.999 10.4897)">
<stop stop-color="#fd8334" offset="0"/>
<stop stop-color="#e03b42" offset="0.56"/>
<stop stop-color="#d51f48" offset="1"/>
</linearGradient>
<linearGradient y1="29.7802" id="LinearGradient_3" x1="477.185" y2="29.7802" x2="509.863" gradientUnits="userSpaceOnUse" gradientTransform="matrix(2.62376 0 0 2.62376 -892.999 10.4897)">
<stop stop-color="#fd8334" offset="0"/>
<stop stop-color="#e03b42" offset="0.56"/>
<stop stop-color="#d51f48" offset="1"/>
</linearGradient>
<linearGradient y1="94.9843" id="LinearGradient_4" x1="46.1563" y2="94.9843" x2="116.298" gradientUnits="userSpaceOnUse" gradientTransform="matrix(4.21078 0 0 4.21078 -151.383 -330.244)">
<stop stop-color="#fd8334" offset="0"/>
<stop stop-color="#e03b42" offset="0.56"/>
<stop stop-color="#d51f48" offset="1"/>
</linearGradient>
<linearGradient y1="94.9843" id="LinearGradient_5" x1="46.1563" y2="94.9843" x2="116.298" gradientUnits="userSpaceOnUse" gradientTransform="matrix(4.21078 0 0 4.21078 -151.383 -330.244)">
<stop stop-color="#fd8334" offset="0"/>
<stop stop-color="#e03b42" offset="0.56"/>
<stop stop-color="#d51f48" offset="1"/>
</linearGradient>
<linearGradient y1="94.9843" id="LinearGradient_6" x1="46.1563" y2="94.9843" x2="116.298" gradientUnits="userSpaceOnUse" gradientTransform="matrix(4.21078 0 0 4.21078 -151.383 -330.244)">
<stop stop-color="#fd8334" offset="0"/>
<stop stop-color="#e03b42" offset="0.56"/>
<stop stop-color="#d51f48" offset="1"/>
</linearGradient>
<linearGradient y1="94.9843" id="LinearGradient_7" x1="46.1563" y2="94.9843" x2="116.298" gradientUnits="userSpaceOnUse" gradientTransform="matrix(4.21078 0 0 4.21078 -151.383 -330.244)">
<stop stop-color="#fd8334" offset="0"/>
<stop stop-color="#e03b42" offset="0.56"/>
<stop stop-color="#d51f48" offset="1"/>
</linearGradient>
<linearGradient y1="94.9843" id="LinearGradient_8" x1="46.1563" y2="94.9843" x2="116.298" gradientUnits="userSpaceOnUse" gradientTransform="matrix(4.21078 0 0 4.21078 -151.383 -330.244)">
<stop stop-color="#fd8334" offset="0"/>
<stop stop-color="#e03b42" offset="0.56"/>
<stop stop-color="#d51f48" offset="1"/>
</linearGradient>
<linearGradient y1="94.9843" id="LinearGradient_9" x1="46.1563" y2="94.9843" x2="116.298" gradientUnits="userSpaceOnUse" gradientTransform="matrix(4.21078 0 0 4.21078 -151.383 -330.244)">
<stop stop-color="#fd8334" offset="0"/>
<stop stop-color="#e03b42" offset="0.56"/>
<stop stop-color="#d51f48" offset="1"/>
</linearGradient>
<linearGradient y1="94.9843" id="LinearGradient_10" x1="46.1563" y2="94.9843" x2="116.298" gradientUnits="userSpaceOnUse" gradientTransform="matrix(4.21078 0 0 4.21078 -151.383 -330.244)">
<stop stop-color="#fd8334" offset="0"/>
<stop stop-color="#e03b42" offset="0.56"/>
<stop stop-color="#d51f48" offset="1"/>
</linearGradient>
<linearGradient y1="94.9843" id="LinearGradient_11" x1="44.7698" y2="94.9843" x2="116.944" gradientUnits="userSpaceOnUse" gradientTransform="matrix(4.21078 0 0 4.21078 -164 -269.672)">
<stop stop-color="#fd8334" offset="0"/>
<stop stop-color="#e03b42" offset="0.56"/>
<stop stop-color="#d51f48" offset="1"/>
</linearGradient>
<linearGradient y1="94.9843" id="LinearGradient_12" x1="44.7698" y2="94.9843" x2="116.944" gradientUnits="userSpaceOnUse" gradientTransform="matrix(4.21078 0 0 4.21078 -164 -269.672)">
<stop stop-color="#fd8334" offset="0"/>
<stop stop-color="#e03b42" offset="0.56"/>
<stop stop-color="#d51f48" offset="1"/>
</linearGradient>
<linearGradient y1="94.9843" id="LinearGradient_13" x1="44.7698" y2="94.9843" x2="116.944" gradientUnits="userSpaceOnUse" gradientTransform="matrix(4.21078 0 0 4.21078 -164 -269.672)">
<stop stop-color="#fd8334" offset="0"/>
<stop stop-color="#e03b42" offset="0.56"/>
<stop stop-color="#d51f48" offset="1"/>
</linearGradient>
<linearGradient y1="94.9843" id="LinearGradient_14" x1="44.7698" y2="94.9843" x2="116.944" gradientUnits="userSpaceOnUse" gradientTransform="matrix(4.21078 0 0 4.21078 -164 -269.672)">
<stop stop-color="#fd8334" offset="0"/>
<stop stop-color="#e03b42" offset="0.56"/>
<stop stop-color="#d51f48" offset="1"/>
</linearGradient>
<linearGradient y1="94.9843" id="LinearGradient_15" x1="44.7698" y2="94.9843" x2="116.944" gradientUnits="userSpaceOnUse" gradientTransform="matrix(4.21078 0 0 4.21078 -164 -269.672)">
<stop stop-color="#fd8334" offset="0"/>
<stop stop-color="#e03b42" offset="0.56"/>
<stop stop-color="#d51f48" offset="1"/>
</linearGradient>
</defs>
<g id="Calque 2" vectornator:layerName="Calque 2" visibility="hidden">
<path stroke="#ffffff" stroke-width="2.74" d="M0+0L500+0L500+200L0+200L0+0Z" fill="#ffffff" stroke-linecap="butt" opacity="1" stroke-linejoin="round"/>
</g>
<g id="Calque 1" vectornator:layerName="Calque 1">
<g opacity="1">
<path stroke="#ffffff" stroke-width="2.5" d="M454.131+91.3295L447.82+95.7701L423.322+107.671L399.963+110.38L394.453+93.0717L373.799+157.939C373.015+160.354+374.154+161.316+376.341+160.07L395.449+149.191C397.308+148.132+398.566+145.517+398.297+143.374L399.525+119.261L427.573+108.914L447.82+105.451C447.803+105.49+447.819+105.544+447.82+105.539L463.291+110.557C464.799+111.047+465.33+110.292+464.518+108.914L454.131+91.3295Z" fill="url(#LinearGradient)" stroke-linecap="butt" opacity="1" stroke-linejoin="round"/>
<path stroke="#ffffff" stroke-width="2.5" d="M353.42+59.357C351.502+59.3193+351.575+60.767+353.946+63.2203L391.5+102.407L394.389+93.3126L417.712+104.696L398.529+137.867L435.812+125.256C436.576+125.005+437.54+124.261+437.96+123.568L444.797+112.289L454.175+91.2407L431.167+91.2407L419.597+102.742L399.963+74.6771L355.962+59.8899C354.89+59.5295+354.059+59.3695+353.42+59.357Z" fill="url(#LinearGradient_2)" stroke-linecap="butt" opacity="1" stroke-linejoin="round"/>
<path stroke="#ffffff" stroke-width="2.5" d="M360.875+39.4477C358.768+39.8008+358.365+41.7242+360.13+44.51L393.218+96.7318L398.504+137.867L444.757+112.363L408.193+52.0789C407.547+51.0134+406.05+49.914+404.849+49.6234L363.548+39.6253C362.489+39.3684+361.577+39.33+360.875+39.4477Z" fill="url(#LinearGradient_3)" stroke-linecap="butt" opacity="1" stroke-linejoin="round"/>
</g>
<g opacity="1">
<g opacity="1">
<path d="M53.1327+63.654L53.1327+77.9165C53.1327+79.668+53.4705+80.9816+54.1461+81.8574C54.8217+82.7332+56.0353+83.1711+57.7868+83.1711C58.3873+83.1711+59.0254+83.121+59.701+83.0209C60.3766+82.9208+60.9396+82.7707+61.39+82.5705L61.5401+91.5784C60.6894+91.8787+59.6134+92.1414+58.3123+92.3666C57.0111+92.5918+55.71+92.7044+54.4089+92.7044C51.9067+92.7044+49.8048+92.3916+48.1034+91.7661C46.4019+91.1405+45.0382+90.2397+44.0123+89.0637C42.9864+87.8877+42.2482+86.4865+41.7978+84.86C41.3474+83.2336+41.1222+81.4195+41.1222+79.4178L41.1222+63.654L35.117+63.654L35.117+54.4209L41.0472+54.4209L41.0472+44.5873L53.1327+44.5873L53.1327+54.4209L61.9154+54.4209L61.9154+63.654L53.1327+63.654Z" opacity="1" fill="url(#LinearGradient_4)"/>
<path d="M91.737+68.8335C91.737+66.8818+91.1239+65.2053+89.8979+63.8041C88.6718+62.4029+86.8327+61.7023+84.3805+61.7023C83.1795+61.7023+82.0785+61.8899+81.0776+62.2653C80.0768+62.6406+79.201+63.1536+78.4503+63.8041C77.6997+64.4547+77.0992+65.2179+76.6488+66.0936C76.1984+66.9694+75.9482+67.8827+75.8981+68.8335L91.737+68.8335ZM103.072+73.5627C103.072+74.0631+103.072+74.5635+103.072+75.064C103.072+75.5644+103.047+76.0398+102.997+76.4902L75.8981+76.4902C75.9982+77.5411+76.311+78.492+76.8364+79.3427C77.3619+80.1935+78.0375+80.9316+78.8632+81.5571C79.6889+82.1827+80.6147+82.6706+81.6406+83.0209C82.6665+83.3712+83.73+83.5464+84.8309+83.5464C86.7826+83.5464+88.4341+83.1836+89.7853+82.4579C91.1364+81.7323+92.2374+80.794+93.0881+79.643L101.646+85.0477C99.8941+87.5999+97.5796+89.5641+94.7021+90.9404C91.8245+92.3166+88.4841+93.0047+84.6808+93.0047C81.8783+93.0047+79.226+92.5668+76.7238+91.691C74.2216+90.8152+72.0322+89.5391+70.1556+87.8627C68.2789+86.1862+66.8027+84.1219+65.7267+81.6697C64.6508+79.2176+64.1128+76.4152+64.1128+73.2624C64.1128+70.2097+64.6383+67.4448+65.6892+64.9676C66.7401+62.4905+68.1663+60.3886+69.9679+58.6621C71.7695+56.9356+73.8964+55.5969+76.3485+54.6461C78.8006+53.6953+81.453+53.2199+84.3055+53.2199C87.0579+53.2199+89.5851+53.6828+91.8871+54.6086C94.1891+55.5344+96.1658+56.8731+97.8173+58.6246C99.4687+60.3761+100.757+62.503+101.683+65.0052C102.609+67.5074+103.072+70.3599+103.072+73.5627Z" opacity="1" fill="url(#LinearGradient_5)"/>
<path d="M109.173+91.8036L109.173+35.054L121.634+35.054L121.634+91.8036L109.173+91.8036Z" opacity="1" fill="url(#LinearGradient_6)"/>
<path d="M155.434+68.8335C155.434+66.8818+154.821+65.2053+153.594+63.8041C152.368+62.4029+150.529+61.7023+148.077+61.7023C146.876+61.7023+145.775+61.8899+144.774+62.2653C143.773+62.6406+142.898+63.1536+142.147+63.8041C141.396+64.4547+140.796+65.2179+140.345+66.0936C139.895+66.9694+139.645+67.8827+139.595+68.8335L155.434+68.8335ZM166.768+73.5627C166.768+74.0631+166.768+74.5635+166.768+75.064C166.768+75.5644+166.743+76.0398+166.693+76.4902L139.595+76.4902C139.695+77.5411+140.008+78.492+140.533+79.3427C141.058+80.1935+141.734+80.9316+142.56+81.5571C143.386+82.1827+144.311+82.6706+145.337+83.0209C146.363+83.3712+147.427+83.5464+148.528+83.5464C150.479+83.5464+152.131+83.1836+153.482+82.4579C154.833+81.7323+155.934+80.794+156.785+79.643L165.342+85.0477C163.591+87.5999+161.276+89.5641+158.399+90.9404C155.521+92.3166+152.181+93.0047+148.377+93.0047C145.575+93.0047+142.923+92.5668+140.42+91.691C137.918+90.8152+135.729+89.5391+133.852+87.8627C131.976+86.1862+130.499+84.1219+129.423+81.6697C128.347+79.2176+127.809+76.4152+127.809+73.2624C127.809+70.2097+128.335+67.4448+129.386+64.9676C130.437+62.4905+131.863+60.3886+133.665+58.6621C135.466+56.9356+137.593+55.5969+140.045+54.6461C142.497+53.6953+145.15+53.2199+148.002+53.2199C150.754+53.2199+153.282+53.6828+155.584+54.6086C157.886+55.5344+159.862+56.8731+161.514+58.6246C163.165+60.3761+164.454+62.503+165.38+65.0052C166.306+67.5074+166.768+70.3599+166.768+73.5627Z" opacity="1" fill="url(#LinearGradient_7)"/>
<path d="M198.467+66.5065C197.766+65.6057+196.815+64.8801+195.614+64.3296C194.413+63.7791+193.187+63.5039+191.936+63.5039C190.635+63.5039+189.459+63.7666+188.408+64.292C187.357+64.8175+186.456+65.5181+185.705+66.3939C184.955+67.2697+184.367+68.283+183.941+69.434C183.516+70.5851+183.303+71.8111+183.303+73.1123C183.303+74.4134+183.504+75.6395+183.904+76.7905C184.304+77.9415+184.892+78.9549+185.668+79.8306C186.444+80.7064+187.369+81.3945+188.445+81.8949C189.521+82.3954+190.735+82.6456+192.086+82.6456C193.337+82.6456+194.576+82.4079+195.802+81.9325C197.028+81.4571+198.016+80.769+198.767+79.8682L205.598+88.2005C204.047+89.7018+202.045+90.8778+199.593+91.7285C197.14+92.5793+194.538+93.0047+191.786+93.0047C188.833+93.0047+186.081+92.5543+183.529+91.6535C180.976+90.7527+178.762+89.439+176.885+87.7125C175.009+85.986+173.532+83.8967+172.456+81.4445C171.38+78.9924+170.842+76.215+170.842+73.1123C170.842+70.0596+171.38+67.3072+172.456+64.855C173.532+62.4029+175.009+60.3136+176.885+58.5871C178.762+56.8606+180.976+55.5344+183.529+54.6086C186.081+53.6828+188.808+53.2199+191.711+53.2199C193.062+53.2199+194.401+53.345+195.727+53.5952C197.053+53.8454+198.329+54.1832+199.555+54.6086C200.781+55.034+201.907+55.5594+202.933+56.185C203.959+56.8105+204.847+57.4986+205.598+58.2493L198.467+66.5065Z" opacity="1" fill="url(#LinearGradient_8)"/>
<path d="M248.406+72.9621C248.406+76.0148+247.855+78.7797+246.754+81.2569C245.653+83.7341+244.152+85.8359+242.25+87.5624C240.349+89.2889+238.147+90.6276+235.645+91.5784C233.142+92.5292+230.465+93.0047+227.613+93.0047C224.81+93.0047+222.145+92.5292+219.618+91.5784C217.091+90.6276+214.889+89.2889+213.012+87.5624C211.136+85.8359+209.647+83.7341+208.546+81.2569C207.445+78.7797+206.894+76.0148+206.894+72.9621C206.894+69.9095+207.445+67.1571+208.546+64.7049C209.647+62.2528+211.136+60.1759+213.012+58.4745C214.889+56.773+217.091+55.4718+219.618+54.571C222.145+53.6703+224.81+53.2199+227.613+53.2199C230.465+53.2199+233.142+53.6703+235.645+54.571C238.147+55.4718+240.349+56.773+242.25+58.4745C244.152+60.1759+245.653+62.2528+246.754+64.7049C247.855+67.1571+248.406+69.9095+248.406+72.9621ZM236.545+72.9621C236.545+71.7611+236.345+70.5851+235.945+69.434C235.545+68.283+234.969+67.2697+234.218+66.3939C233.468+65.5181+232.542+64.805+231.441+64.2545C230.34+63.704+229.064+63.4288+227.613+63.4288C226.161+63.4288+224.885+63.704+223.784+64.2545C222.683+64.805+221.77+65.5181+221.044+66.3939C220.319+67.2697+219.768+68.283+219.393+69.434C219.018+70.5851+218.83+71.7611+218.83+72.9621C218.83+74.1632+219.018+75.3392+219.393+76.4902C219.768+77.6412+220.331+78.6796+221.082+79.6054C221.833+80.5312+222.758+81.2694+223.859+81.8199C224.96+82.3704+226.236+82.6456+227.688+82.6456C229.139+82.6456+230.415+82.3704+231.516+81.8199C232.617+81.2694+233.543+80.5312+234.293+79.6054C235.044+78.6796+235.607+77.6412+235.982+76.4902C236.358+75.3392+236.545+74.1632+236.545+72.9621Z" opacity="1" fill="url(#LinearGradient_9)"/>
<path d="M302.248+91.8036L302.248+71.3858C302.248+70.3348+302.173+69.3214+302.023+68.3456C301.873+67.3697+301.598+66.5315+301.197+65.8309C300.797+65.1303+300.259+64.5673+299.583+64.1419C298.908+63.7165+298.02+63.5039+296.919+63.5039C295.868+63.5039+294.954+63.7291+294.179+64.1795C293.403+64.6298+292.753+65.2304+292.227+65.981C291.702+66.7317+291.314+67.5949+291.064+68.5708C290.813+69.5466+290.688+70.56+290.688+71.6109L290.688+91.8036L278.377+91.8036L278.377+70.485C278.377+68.3331+277.952+66.6316+277.101+65.3805C276.251+64.1294+274.899+63.5039+273.048+63.5039C271.096+63.5039+269.582+64.2795+268.506+65.8309C267.43+67.3823+266.892+69.2839+266.892+71.5359L266.892+91.8036L254.507+91.8036L254.507+54.4209L266.442+54.4209L266.442+59.6004L266.592+59.6004C267.043+58.7997+267.606+58.0241+268.281+57.2734C268.957+56.5228+269.77+55.8597+270.721+55.2842C271.672+54.7087+272.735+54.2458+273.911+53.8955C275.087+53.5452+276.376+53.37+277.777+53.37C280.479+53.37+282.769+53.9205+284.645+55.0214C286.522+56.1224+287.986+57.6988+289.037+59.7506C290.288+57.7989+291.889+56.2475+293.841+55.0965C295.793+53.9455+298.17+53.37+300.972+53.37C303.524+53.37+305.664+53.8329+307.39+54.7587C309.117+55.6845+310.506+56.8856+311.556+58.3619C312.607+59.8382+313.371+61.4896+313.846+63.3162C314.321+65.1428+314.559+66.9319+314.559+68.6834L314.559+91.8036L302.248+91.8036Z" opacity="1" fill="url(#LinearGradient_10)"/>
</g>
<g opacity="1">
<path d="M71.7185+132.108C71.5684+128.805+70.505+126.065+68.5283+123.889C66.5515+121.712+63.7366+120.623+60.0834+120.623C58.3819+120.623+56.8055+120.936+55.3542+121.561C53.903+122.187+52.6269+123.038+51.5259+124.114C50.4249+125.19+49.5492+126.416+48.8986+127.792C48.248+129.168+47.8727+130.607+47.7726+132.108L71.7185+132.108ZM76.8981+133.76C76.8981+134.11+76.8981+134.485+76.8981+134.886C76.8981+135.286+76.8731+135.711+76.823+136.162L47.6975+136.162C47.7476+137.913+48.0979+139.565+48.7485+141.116C49.399+142.667+50.2998+144.019+51.4508+145.17C52.6018+146.321+53.953+147.234+55.5044+147.91C57.0557+148.585+58.7322+148.923+60.5338+148.923C63.1861+148.923+65.4756+148.31+67.4023+147.084C69.329+145.858+70.7927+144.444+71.7936+142.843L75.622+145.845C73.5201+148.498+71.2056+150.399+68.6784+151.55C66.1512+152.701+63.4363+153.277+60.5338+153.277C57.9315+153.277+55.5169+152.814+53.2899+151.888C51.063+150.962+49.1488+149.674+47.5474+148.022C45.946+146.371+44.6824+144.419+43.7566+142.167C42.8308+139.915+42.3679+137.463+42.3679+134.811C42.3679+132.158+42.8183+129.706+43.7191+127.454C44.6199+125.202+45.8709+123.25+47.4723+121.599C49.0737+119.948+50.9504+118.659+53.1023+117.733C55.2542+116.807+57.5812+116.344+60.0834+116.344C62.8358+116.344+65.2629+116.807+67.3647+117.733C69.4666+118.659+71.2181+119.91+72.6193+121.486C74.0206+123.063+75.084+124.902+75.8096+127.004C76.5353+129.106+76.8981+131.358+76.8981+133.76Z" opacity="1" fill="url(#LinearGradient_11)"/>
<path d="M122.463+121.524L112.554+121.524L112.554+142.017C112.554+143.318+112.679+144.394+112.93+145.245C113.18+146.095+113.543+146.759+114.018+147.234C114.493+147.709+115.056+148.035+115.707+148.21C116.358+148.385+117.058+148.473+117.809+148.473C118.509+148.473+119.248+148.372+120.023+148.172C120.799+147.972+121.537+147.697+122.238+147.347L122.463+151.775C121.562+152.126+120.624+152.388+119.648+152.564C118.672+152.739+117.609+152.826+116.458+152.826C115.507+152.826+114.506+152.701+113.455+152.451C112.404+152.201+111.428+151.725+110.527+151.025C109.627+150.324+108.889+149.373+108.313+148.172C107.738+146.971+107.45+145.395+107.45+143.443L107.45+121.524L100.168+121.524L100.168+117.245L107.45+117.245L107.45+107.337L112.554+107.337L112.554+117.245L122.463+117.245L122.463+121.524Z" opacity="1" fill="url(#LinearGradient_12)"/>
<path d="M174.709+152.376C174.609+151.425+174.533+150.374+174.483+149.223C174.433+148.072+174.408+147.121+174.408+146.371L174.258+146.371C173.257+148.422+171.631+150.086+169.379+151.363C167.127+152.639+164.75+153.277+162.248+153.277C157.794+153.277+154.453+151.951+152.226+149.298C150+146.646+148.886+143.143+148.886+138.789L148.886+117.245L153.99+117.245L153.99+136.687C153.99+138.539+154.141+140.215+154.441+141.717C154.741+143.218+155.254+144.507+155.98+145.582C156.705+146.658+157.681+147.497+158.907+148.097C160.133+148.698+161.672+148.998+163.524+148.998C164.875+148.998+166.189+148.723+167.465+148.172C168.741+147.622+169.879+146.784+170.88+145.658C171.881+144.532+172.682+143.105+173.282+141.379C173.883+139.652+174.183+137.613+174.183+135.261L174.183+117.245L179.288+117.245L179.288+144.644C179.288+145.595+179.313+146.821+179.363+148.322C179.413+149.824+179.488+151.175+179.588+152.376L174.709+152.376Z" opacity="1" fill="url(#LinearGradient_13)"/>
<path d="M240.466+146.446C238.965+148.698+237.013+150.399+234.611+151.55C232.209+152.701+229.732+153.277+227.179+153.277C224.427+153.277+221.937+152.801+219.71+151.85C217.484+150.9+215.582+149.599+214.005+147.947C212.429+146.296+211.203+144.344+210.327+142.092C209.451+139.84+209.014+137.413+209.014+134.811C209.014+132.208+209.451+129.781+210.327+127.529C211.203+125.277+212.429+123.326+214.005+121.674C215.582+120.023+217.484+118.722+219.71+117.771C221.937+116.82+224.427+116.344+227.179+116.344C229.732+116.344+232.209+116.932+234.611+118.108C237.013+119.284+238.965+121.024+240.466+123.326L240.616+123.326L240.616+95.6263L245.721+95.6263L245.721+152.376L240.616+152.376L240.616+146.446L240.466+146.446ZM214.418+134.811C214.418+136.762+214.719+138.601+215.319+140.328C215.92+142.054+216.783+143.556+217.909+144.832C219.035+146.108+220.424+147.109+222.075+147.834C223.726+148.56+225.603+148.923+227.705+148.923C229.657+148.923+231.458+148.56+233.11+147.834C234.761+147.109+236.187+146.12+237.388+144.869C238.589+143.618+239.528+142.129+240.203+140.403C240.879+138.676+241.217+136.812+241.217+134.811C241.217+132.809+240.879+130.945+240.203+129.218C239.528+127.492+238.589+125.99+237.388+124.714C236.187+123.438+234.761+122.437+233.11+121.712C231.458+120.986+229.657+120.623+227.705+120.623C225.603+120.623+223.726+120.998+222.075+121.749C220.424+122.5+219.035+123.513+217.909+124.789C216.783+126.065+215.92+127.567+215.319+129.293C214.719+131.02+214.418+132.859+214.418+134.811Z" opacity="1" fill="url(#LinearGradient_14)"/>
<path d="M304.947+132.108C304.797+128.805+303.734+126.065+301.757+123.889C299.78+121.712+296.966+120.623+293.312+120.623C291.611+120.623+290.034+120.936+288.583+121.561C287.132+122.187+285.856+123.038+284.755+124.114C283.654+125.19+282.778+126.416+282.128+127.792C281.477+129.168+281.102+130.607+281.002+132.108L304.947+132.108ZM310.127+133.76C310.127+134.11+310.127+134.485+310.127+134.886C310.127+135.286+310.102+135.711+310.052+136.162L280.926+136.162C280.977+137.913+281.327+139.565+281.977+141.116C282.628+142.667+283.529+144.019+284.68+145.17C285.831+146.321+287.182+147.234+288.733+147.91C290.285+148.585+291.961+148.923+293.763+148.923C296.415+148.923+298.705+148.31+300.631+147.084C302.558+145.858+304.022+144.444+305.023+142.843L308.851+145.845C306.749+148.498+304.435+150.399+301.907+151.55C299.38+152.701+296.665+153.277+293.763+153.277C291.16+153.277+288.746+152.814+286.519+151.888C284.292+150.962+282.378+149.674+280.776+148.022C279.175+146.371+277.911+144.419+276.986+142.167C276.06+139.915+275.597+137.463+275.597+134.811C275.597+132.158+276.047+129.706+276.948+127.454C277.849+125.202+279.1+123.25+280.701+121.599C282.303+119.948+284.179+118.659+286.331+117.733C288.483+116.807+290.81+116.344+293.312+116.344C296.065+116.344+298.492+116.807+300.594+117.733C302.696+118.659+304.447+119.91+305.848+121.486C307.25+123.063+308.313+124.902+309.039+127.004C309.764+129.106+310.127+131.358+310.127+133.76Z" opacity="1" fill="url(#LinearGradient_15)"/>
</g>
</g>
</g>
</svg>
